<svg width="226" height="128" viewBox="0 0 226 128" fill="none" xmlns="http://www.w3.org/2000/svg">
<g id="logo-6">
<path id="Vector" d="M70.197 54.0293H74.004V72.5079H70.197V54.0293Z" fill="#1E1B1B"/>
<path id="Vector_2" d="M76.1356 66.1774C76.1356 64.848 76.5273 63.5484 77.2611 62.4436C77.9948 61.3387 79.0376 60.4782 80.2571 59.9712C81.4767 59.4642 82.8182 59.3335 84.1115 59.5957C85.4049 59.8579 86.5919 60.5011 87.522 61.4439C88.4522 62.3866 89.0837 63.5865 89.3365 64.8913C89.5892 66.1962 89.4518 67.5473 88.9417 68.7733C88.4317 69.9994 87.5718 71.0453 86.4713 71.7783C85.3707 72.5114 84.0789 72.8987 82.7597 72.8911C81.8847 72.898 81.0171 72.7288 80.2078 72.3933C79.3986 72.0579 78.664 71.563 78.047 70.9377C77.43 70.3124 76.9432 69.5692 76.6149 68.7518C76.2867 67.9344 76.1238 67.0592 76.1356 66.1774ZM85.6783 66.1774C85.6633 65.6043 85.481 65.0483 85.1541 64.579C84.8272 64.1097 84.3703 63.748 83.8405 63.539C83.3107 63.3301 82.7315 63.2832 82.1754 63.4042C81.6192 63.5252 81.1109 63.8088 80.7138 64.2194C80.3168 64.6301 80.0487 65.1496 79.9431 65.713C79.8375 66.2764 79.899 66.8586 80.1201 67.3869C80.3411 67.9152 80.7118 68.3662 81.1858 68.6833C81.6598 69.0004 82.2161 69.1696 82.785 69.1698C83.1724 69.1774 83.5572 69.1044 83.9153 68.9554C84.2734 68.8064 84.5971 68.5845 84.8663 68.3036C85.1355 68.0228 85.3442 67.689 85.4796 67.3232C85.6149 66.9573 85.6739 66.5673 85.6529 66.1774H85.6783Z" fill="#1E1B1B"/>
<path id="Vector_3" d="M104.447 59.8474V71.8808C104.447 76.1264 101.147 77.9295 97.8099 77.9295C96.6327 78.0269 95.452 77.7912 94.4005 77.249C93.349 76.7068 92.4686 75.8795 91.8584 74.8604L95.0689 72.9934C95.3291 73.522 95.7429 73.9581 96.2553 74.2437C96.7676 74.5293 97.3542 74.6507 97.9368 74.5919C98.3079 74.638 98.6846 74.6008 99.0398 74.4831C99.3951 74.3654 99.7201 74.1701 99.9917 73.9111C100.263 73.652 100.475 73.3357 100.611 72.9847C100.747 72.6338 100.805 72.2568 100.779 71.8808V70.7171C100.336 71.2584 99.7742 71.6882 99.1376 71.9723C98.501 72.2565 97.8074 72.3871 97.112 72.354C95.4292 72.354 93.8154 71.6804 92.6255 70.4813C91.4356 69.2822 90.7671 67.6558 90.7671 65.96C90.7671 64.2643 91.4356 62.6379 92.6255 61.4388C93.8154 60.2397 95.4292 59.5661 97.112 59.5661C97.8074 59.5329 98.501 59.6636 99.1376 59.9477C99.7742 60.2319 100.336 60.6616 100.779 61.2029V59.9241L104.447 59.8474ZM100.779 65.9217C100.805 65.3099 100.648 64.7044 100.329 64.1832C100.01 63.6619 99.5437 63.2487 98.9899 62.9967C98.4361 62.7447 97.8201 62.6653 97.2212 62.7689C96.6223 62.8725 96.0679 63.1543 95.6292 63.5779C95.1905 64.0016 94.8876 64.5479 94.7594 65.1464C94.6312 65.745 94.6837 66.3685 94.91 66.9368C95.1363 67.5051 95.5261 67.9922 96.0293 68.3354C96.5325 68.6787 97.1261 68.8624 97.7338 68.8629C98.1303 68.8917 98.5283 68.8363 98.9023 68.7004C99.2763 68.5646 99.6178 68.3511 99.9048 68.0739C100.192 67.7968 100.418 67.462 100.569 67.0913C100.719 66.7205 100.791 66.3221 100.779 65.9217Z" fill="#1E1B1B"/>
<path id="Vector_4" d="M106.591 66.1775C106.591 64.8491 106.982 63.5506 107.715 62.4463C108.447 61.342 109.489 60.4815 110.707 59.9737C111.925 59.4659 113.265 59.3337 114.558 59.5938C115.85 59.8539 117.037 60.4946 117.968 61.4348C118.9 62.375 119.533 63.5724 119.789 64.8756C120.044 66.1788 119.911 67.5291 119.404 68.7556C118.898 69.9822 118.042 71.0298 116.945 71.766C115.848 72.5021 114.559 72.8937 113.24 72.8912C112.364 72.8998 111.494 72.7319 110.683 72.3974C109.871 72.0628 109.134 71.5684 108.515 70.9431C107.896 70.3178 107.407 69.5742 107.076 68.7559C106.746 67.9375 106.581 67.0609 106.591 66.1775ZM116.134 66.1775C116.119 65.6038 115.936 65.0474 115.609 64.5778C115.281 64.1083 114.823 63.7466 114.293 63.538C113.762 63.3294 113.183 63.2833 112.626 63.4053C112.07 63.5274 111.561 63.8122 111.165 64.2241C110.768 64.6361 110.501 65.1567 110.397 65.721C110.293 66.2852 110.356 66.8678 110.579 67.3959C110.802 67.924 111.175 68.374 111.651 68.6896C112.126 69.0051 112.684 69.1722 113.253 69.1699C113.641 69.1775 114.025 69.1045 114.383 68.9555C114.741 68.8065 115.065 68.5846 115.334 68.3037C115.604 68.0229 115.812 67.6891 115.948 67.3233C116.083 66.9574 116.142 66.5674 116.121 66.1775H116.134Z" fill="#1E1B1B"/>
<path id="Vector_5" d="M121.654 56.4589C121.654 56.0087 121.786 55.5686 122.034 55.1943C122.283 54.8199 122.635 54.5282 123.048 54.3559C123.461 54.1836 123.915 54.1385 124.353 54.2264C124.791 54.3142 125.194 54.531 125.51 54.8493C125.826 55.1677 126.041 55.5732 126.128 56.0148C126.215 56.4563 126.17 56.914 125.999 57.33C125.828 57.7459 125.539 58.1014 125.167 58.3515C124.796 58.6016 124.359 58.7351 123.913 58.7351C123.316 58.7285 122.745 58.4865 122.323 58.0611C121.9 57.6356 121.66 57.0605 121.654 56.4589ZM122.022 59.8477H125.829V72.5077H122.022V59.8477Z" fill="#1E1B1B"/>
<path id="Vector_6" d="M142.122 66.1777C142.165 67.0196 142.042 67.8618 141.761 68.6557C141.479 69.4495 141.044 70.1795 140.482 70.8035C139.919 71.4274 139.24 71.9331 138.483 72.2915C137.725 72.6498 136.905 72.8536 136.069 72.8913C135.36 72.9389 134.65 72.8244 133.99 72.5565C133.331 72.2886 132.741 71.8741 132.262 71.344V77.5973H128.456V59.8476H132.262V61.0369C132.741 60.5084 133.332 60.0958 133.991 59.8301C134.651 59.5643 135.361 59.4523 136.069 59.5024C136.902 59.5401 137.719 59.7428 138.473 60.0987C139.228 60.4546 139.906 60.9568 140.468 61.5767C141.03 62.1965 141.465 62.9219 141.749 63.7113C142.033 64.5008 142.16 65.3388 142.122 66.1777ZM138.316 66.1777C138.301 65.5837 138.112 65.0075 137.773 64.5211C137.435 64.0347 136.961 63.6599 136.412 63.4436C135.863 63.2273 135.263 63.1791 134.687 63.3051C134.11 63.4311 133.584 63.7257 133.173 64.1519C132.762 64.5782 132.486 65.1171 132.378 65.7012C132.27 66.2852 132.335 66.8884 132.566 67.4352C132.796 67.982 133.182 68.448 133.674 68.7748C134.167 69.1016 134.744 69.2747 135.333 69.2723C135.737 69.2896 136.14 69.2207 136.516 69.07C136.891 68.9194 137.231 68.6905 137.512 68.3982C137.794 68.106 138.011 67.7572 138.15 67.3745C138.288 66.9918 138.344 66.5839 138.316 66.1777Z" fill="#1E1B1B"/>
<path id="Vector_7" d="M153.708 68.7095C153.708 71.6251 151.17 72.8655 148.48 72.8655C147.383 72.9651 146.281 72.7307 145.317 72.1927C144.354 71.6547 143.572 70.8378 143.074 69.8476L146.348 67.9805C146.478 68.4368 146.759 68.8344 147.145 69.1068C147.531 69.3791 147.997 69.5097 148.467 69.4767C149.368 69.4767 149.825 69.1954 149.825 68.6839C149.825 67.29 143.645 68.0317 143.645 63.6454C143.645 60.8832 145.955 59.5021 148.569 59.5021C149.563 59.4573 150.55 59.6845 151.426 60.1596C152.301 60.6346 153.033 61.3399 153.543 62.2004L150.269 63.9396C150.125 63.6096 149.888 63.329 149.589 63.1316C149.289 62.9341 148.939 62.8284 148.582 62.827C147.922 62.827 147.528 63.0828 147.528 63.5303C147.528 64.9882 153.708 64.0291 153.708 68.7095Z" fill="#1E1B1B"/>
<path id="Vector_8" d="M167.502 59.8477V72.5077H163.695V71.3184C163.263 71.8449 162.713 72.2615 162.092 72.5347C161.47 72.8079 160.794 72.9301 160.117 72.8913C157.579 72.8913 155.409 71.0627 155.409 67.6483V59.8477H159.216V67.0728C159.186 67.3749 159.221 67.6799 159.32 67.9668C159.418 68.2537 159.577 68.5156 159.786 68.7345C159.995 68.9533 160.248 69.1239 160.529 69.2345C160.809 69.345 161.11 69.3928 161.411 69.3747C162.781 69.3747 163.746 68.5562 163.746 66.8171V59.8477H167.502Z" fill="#1E1B1B"/>
<path id="Vector_9" d="M189.074 64.7325V72.5076H185.267V65.065C185.267 63.7862 184.671 62.9934 183.465 62.9934C182.26 62.9934 181.498 63.8757 181.498 65.3719V72.5076H177.692V65.065C177.692 63.7862 177.095 62.9934 175.89 62.9934C174.684 62.9934 173.923 63.8757 173.923 65.3719V72.5076H170.116V59.8475H173.923V61.0112C174.317 60.4971 174.832 60.09 175.421 59.8265C176.01 59.5631 176.655 59.4517 177.298 59.5023C177.942 59.4684 178.583 59.6039 179.16 59.8953C179.736 60.1868 180.227 60.6242 180.585 61.1647C181.003 60.6 181.556 60.1514 182.193 59.8607C182.83 59.57 183.53 59.4466 184.227 59.5023C187.196 59.5023 189.074 61.5739 189.074 64.7325Z" fill="#1E1B1B"/>
<path id="Vector_10" d="M47.5201 50.7044V45.2695H30.5159V82.6103H47.5201V77.1754C44.0368 77.1754 40.6962 75.781 38.2331 73.2988C35.77 70.8167 34.3862 67.4502 34.3862 63.9399C34.3862 60.4296 35.77 57.0631 38.2331 54.581C40.6962 52.0989 44.0368 50.7044 47.5201 50.7044Z" fill="#1E1B1B"/>
<path id="Vector_11" d="M47.5203 50.7041V77.1751C51.0036 77.1751 54.3442 75.7807 56.8073 73.2985C59.2704 70.8164 60.6542 67.4499 60.6542 63.9396C60.6542 60.4293 59.2704 57.0628 56.8073 54.5807C54.3442 52.0986 51.0036 50.7041 47.5203 50.7041Z" fill="#1E1B1B"/>
<path id="Vector_12" d="M192.272 59.7707C193.814 59.7707 195.064 58.5112 195.064 56.9574C195.064 55.4036 193.814 54.144 192.272 54.144C190.731 54.144 189.481 55.4036 189.481 56.9574C189.481 58.5112 190.731 59.7707 192.272 59.7707Z" fill="#1E1B1B"/>
</g>
</svg>
