<svg width="225" height="128" viewBox="0 0 225 128" fill="none" xmlns="http://www.w3.org/2000/svg">
<g id="logo-8 1">
<path id="Vector" d="M52.2793 61.9641C51.801 62.4471 51.4347 63.03 51.2065 63.6713C50.9783 64.3126 50.8938 64.9965 50.9591 65.6743L50.9364 65.6515C51.0035 66.4494 50.8963 67.2523 50.6223 68.0043C50.3482 68.7563 49.914 69.4392 49.3499 70.0054C48.7857 70.5715 48.1052 71.0073 47.3559 71.2823C46.6066 71.5573 45.8066 71.6649 45.0116 71.5976L45.0343 71.6204C44.0833 71.5315 43.1282 71.7392 42.2991 72.2151C41.4701 72.691 40.8075 73.4119 40.4016 74.2796C39.9958 75.1473 39.8665 76.1195 40.0314 77.0636C40.1962 78.0077 40.6472 78.8778 41.3229 79.5553C41.9985 80.2327 42.8659 80.6846 43.8068 80.8492C44.7477 81.0138 45.7163 80.8831 46.5805 80.475C47.4447 80.067 48.1625 79.4013 48.6359 78.5689C49.1094 77.7364 49.3154 76.7777 49.2261 75.8234L49.2501 75.8462C49.183 75.0483 49.2901 74.2454 49.5642 73.4934C49.8382 72.7414 50.2724 72.0585 50.8366 71.4923C51.4007 70.9262 52.0812 70.4904 52.8305 70.2154C53.5798 69.9404 54.3798 69.8328 55.1748 69.9001L55.1509 69.8773C55.9277 69.9475 56.7096 69.8196 57.4241 69.5057C58.1386 69.1918 58.7625 68.702 59.2382 68.0816C59.7138 67.4613 60.0257 66.7304 60.145 65.9569C60.2642 65.1833 60.187 64.3921 59.9204 63.6565C59.6538 62.9209 59.2065 62.2647 58.62 61.7488C58.0334 61.2328 57.3266 60.8739 56.5649 60.7051C55.8033 60.5363 55.0116 60.5632 54.2631 60.7833C53.5146 61.0034 52.8336 61.4095 52.2831 61.9641H52.2793Z" fill="#1E1B1B"/>
<path id="Vector_2" d="M42.9678 68.633L42.9439 68.6102C43.6196 68.6785 44.3019 68.5953 44.9417 68.3665C45.5814 68.1378 46.1624 67.7692 46.6428 67.2874C47.1232 66.8057 47.4909 66.2228 47.7193 65.581C47.9478 64.9391 48.0312 64.2544 47.9636 63.5762L47.9876 63.599C47.9205 62.8012 48.0277 61.9982 48.3017 61.2462C48.5757 60.4943 49.01 59.8113 49.5741 59.2452C50.1383 58.679 50.8188 58.2432 51.568 57.9682C52.3173 57.6932 53.1174 57.5856 53.9124 57.653L53.8884 57.6302C54.8395 57.7198 55.7949 57.5128 56.6245 57.0375C57.454 56.5621 58.1172 55.8415 58.5236 54.974C58.9301 54.1064 59.06 53.1342 58.8956 52.1898C58.7312 51.2455 58.2806 50.375 57.6052 49.6971C56.9297 49.0192 56.0623 48.567 55.1214 48.402C54.1804 48.2371 53.2116 48.3674 52.3471 48.7753C51.4827 49.1832 50.7647 49.8488 50.291 50.6813C49.8174 51.5138 49.6111 52.4727 49.7004 53.4272L49.6777 53.4031C49.7451 54.201 49.638 55.004 49.3641 55.7561C49.0901 56.5082 48.6559 57.1912 48.0917 57.7574C47.5275 58.3237 46.8469 58.7594 46.0975 59.0344C45.3481 59.3093 44.548 59.4167 43.7529 59.3491L43.7757 59.3732C43.1 59.3049 42.4176 59.3881 41.7779 59.6169C41.1381 59.8456 40.5571 60.2142 40.0767 60.696C39.5963 61.1777 39.2286 61.7606 39.0002 62.4024C38.7717 63.0443 38.6883 63.729 38.7559 64.4072L38.7332 64.3844C38.8 65.1822 38.6927 65.985 38.4186 66.7369C38.1445 67.4888 37.7103 68.1716 37.1462 68.7377C36.5821 69.3039 35.9017 69.7397 35.1525 70.0147C34.4033 70.2898 33.6033 70.3975 32.8084 70.3304L32.8311 70.3532C31.88 70.2636 30.9246 70.4706 30.0951 70.9459C29.2655 71.4213 28.6023 72.1419 28.1959 73.0094C27.7894 73.877 27.6595 74.8492 27.8239 75.7936C27.9883 76.7379 28.4389 77.6084 29.1144 78.2863C29.7898 78.9641 30.6572 79.4164 31.5982 79.5814C32.5392 79.7463 33.5079 79.616 34.3724 79.2081C35.2368 78.8002 35.9548 78.1346 36.4285 77.3021C36.9022 76.4696 37.1084 75.5107 37.0191 74.5562L37.0431 74.579C36.976 73.7812 37.0831 72.9782 37.3572 72.2263C37.6312 71.4743 38.0654 70.7914 38.6296 70.2252C39.1937 69.659 39.8742 69.2232 40.6235 68.9482C41.3728 68.6732 42.1728 68.5656 42.9678 68.633Z" fill="#1E1B1B"/>
<path id="Vector_3" d="M34.5087 66.0907C34.9871 65.6078 35.3534 65.0248 35.5814 64.3835C35.8094 63.7421 35.8935 63.0582 35.8277 62.3804L35.8517 62.4032C35.7846 61.6051 35.8918 60.802 36.166 60.0498C36.4401 59.2976 36.8746 58.6146 37.439 58.0483C38.0035 57.4821 38.6843 57.0464 39.4339 56.7716C40.1835 56.4967 40.9838 56.3894 41.779 56.4572L41.7551 56.4344C42.7058 56.5238 43.6608 56.3167 44.49 55.8414C45.3191 55.366 45.982 54.6456 46.3882 53.7783C46.7944 52.9111 46.9242 51.9392 46.7598 50.9952C46.5954 50.0512 46.1449 49.181 45.4697 48.5034C44.7945 47.8258 43.9275 47.3736 42.9868 47.2087C42.0462 47.0437 41.0778 47.174 40.2136 47.5816C39.3494 47.9893 38.6316 48.6545 38.158 49.4867C37.6843 50.3188 37.478 51.2772 37.5671 52.2314L37.5443 52.2086C37.6114 53.0064 37.5043 53.8094 37.2302 54.5613C36.9562 55.3133 36.522 55.9962 35.9578 56.5624C35.3937 57.1286 34.7132 57.5644 33.9639 57.8394C33.2146 58.1144 32.4146 58.222 31.6196 58.1546L31.6423 58.1774C30.8655 58.1075 30.0837 58.2355 29.3693 58.5495C28.6549 58.8636 28.0311 59.3535 27.5556 59.9739C27.0801 60.5944 26.7683 61.3252 26.6492 62.0987C26.5301 62.8723 26.6075 63.6635 26.8741 64.399C27.1408 65.1345 27.5882 65.7906 28.1747 66.3064C28.7613 66.8223 29.4682 67.1812 30.2297 67.3499C30.9913 67.5186 31.783 67.4916 32.5315 67.2715C33.2799 67.0514 33.9609 66.6452 34.5113 66.0907H34.5087Z" fill="#1E1B1B"/>
<path id="Vector_4" d="M73.6079 53.4565H77.3566V71.7646H73.6079V53.4565Z" fill="#1E1B1B"/>
<path id="Vector_5" d="M79.4797 65.4954C79.4744 64.1797 79.8584 62.8921 80.5829 61.7956C81.3074 60.6991 82.3399 59.843 83.5496 59.3359C84.7593 58.8287 86.0917 58.6933 87.3782 58.9468C88.6646 59.2002 89.8472 59.8311 90.776 60.7596C91.7049 61.688 92.3383 62.8723 92.596 64.1623C92.8537 65.4523 92.7241 66.7901 92.2236 68.0061C91.7231 69.2222 90.8743 70.2618 89.7846 70.9933C88.6949 71.7248 87.4134 72.1153 86.1025 72.1153C85.2322 72.1253 84.3687 71.9611 83.5625 71.6322C82.7562 71.3034 82.0234 70.8166 81.4067 70.2002C80.7901 69.5839 80.3021 68.8504 79.9712 68.0425C79.6403 67.2347 79.4732 66.3688 79.4797 65.4954ZM88.9765 65.4954C88.9609 64.9283 88.779 64.3784 88.4536 63.9144C88.1283 63.4505 87.6739 63.0931 87.1473 62.8869C86.6206 62.6807 86.0451 62.6349 85.4926 62.7552C84.9402 62.8755 84.4353 63.1566 84.0412 63.5632C83.647 63.9699 83.3811 64.4842 83.2765 65.0417C83.172 65.5993 83.2336 66.1754 83.4536 66.698C83.6735 67.2206 84.0421 67.6666 84.5133 67.9801C84.9844 68.2936 85.5372 68.4609 86.1025 68.4608C86.4896 68.4712 86.8747 68.401 87.2334 68.2545C87.5922 68.1081 87.9168 67.8886 88.1868 67.61C88.4569 67.3314 88.6664 66.9997 88.8024 66.6357C88.9383 66.2718 88.9976 65.8835 88.9765 65.4954Z" fill="#1E1B1B"/>
<path id="Vector_6" d="M107.666 59.2252V71.1325C107.666 75.3456 104.392 77.1267 101.068 77.1267C99.8981 77.2145 98.7265 76.9773 97.6818 76.4411C96.6372 75.9048 95.7598 75.0902 95.146 74.0865L98.3444 72.2308C98.6024 72.7539 99.0135 73.1855 99.5226 73.4678C100.032 73.7501 100.615 73.8696 101.193 73.8104C101.563 73.8618 101.94 73.8291 102.295 73.7147C102.651 73.6004 102.976 73.4072 103.247 73.1496C103.518 72.892 103.728 72.5765 103.861 72.2265C103.995 71.8764 104.048 71.5008 104.017 71.1274V69.981C103.578 70.5201 103.019 70.9483 102.385 71.2315C101.752 71.5146 101.061 71.6447 100.368 71.6113C98.7191 71.5591 97.1553 70.8652 96.0075 69.6763C94.8596 68.4874 94.2178 66.897 94.2178 65.2416C94.2178 63.5862 94.8596 61.9957 96.0075 60.8068C97.1553 59.618 98.7191 58.924 100.368 58.8718C101.061 58.8384 101.752 58.9685 102.385 59.2517C103.019 59.5348 103.578 59.9631 104.017 60.5021V59.2227L107.666 59.2252ZM104.018 65.2435C104.043 64.6372 103.887 64.0372 103.57 63.5207C103.252 63.0042 102.788 62.5949 102.237 62.3454C101.686 62.096 101.073 62.0177 100.477 62.1209C99.8808 62.224 99.3293 62.5037 98.8931 62.924C98.457 63.3444 98.1562 63.8861 98.0294 64.4794C97.9027 65.0728 97.9557 65.6906 98.1818 66.2535C98.4079 66.8163 98.7966 67.2983 99.298 67.6376C99.7994 67.9768 100.39 68.1577 100.995 68.1569C101.389 68.1845 101.784 68.129 102.155 67.994C102.527 67.859 102.866 67.6474 103.15 67.3729C103.435 67.0985 103.659 66.7672 103.809 66.4004C103.958 66.0337 104.03 65.6395 104.018 65.2435Z" fill="#1E1B1B"/>
<path id="Vector_7" d="M109.789 65.4954C109.784 64.1797 110.167 62.8921 110.892 61.7956C111.617 60.6991 112.649 59.843 113.859 59.3359C115.068 58.8287 116.401 58.6933 117.687 58.9468C118.974 59.2002 120.156 59.8311 121.085 60.7596C122.014 61.688 122.647 62.8723 122.905 64.1623C123.163 65.4523 123.033 66.7901 122.533 68.0061C122.032 69.2222 121.183 70.2618 120.094 70.9933C119.004 71.7248 117.723 72.1153 116.412 72.1153C115.541 72.1253 114.678 71.9611 113.872 71.6322C113.065 71.3034 112.332 70.8166 111.716 70.2002C111.099 69.5839 110.611 68.8504 110.28 68.0425C109.949 67.2347 109.782 66.3688 109.789 65.4954ZM119.286 65.4954C119.27 64.9283 119.088 64.3784 118.763 63.9144C118.437 63.4505 117.983 63.0931 117.456 62.8869C116.93 62.6807 116.354 62.6349 115.802 62.7552C115.249 62.8755 114.744 63.1566 114.35 63.5632C113.956 63.9699 113.69 64.4842 113.586 65.0417C113.481 65.5993 113.543 66.1754 113.763 66.698C113.983 67.2206 114.351 67.6666 114.822 67.9801C115.293 68.2936 115.846 68.4609 116.412 68.4608C116.799 68.4712 117.184 68.401 117.543 68.2545C117.901 68.1081 118.226 67.8886 118.496 67.61C118.766 67.3314 118.976 66.9997 119.111 66.6357C119.247 66.2718 119.307 65.8835 119.286 65.4954Z" fill="#1E1B1B"/>
<path id="Vector_8" d="M124.783 55.8647C124.783 55.4183 124.915 54.9819 125.162 54.6106C125.409 54.2394 125.76 53.9501 126.171 53.7793C126.582 53.6084 127.034 53.5637 127.471 53.6508C127.907 53.7379 128.308 53.9529 128.622 54.2686C128.937 54.5843 129.151 54.9865 129.238 55.4244C129.325 55.8622 129.28 56.3161 129.11 56.7286C128.94 57.141 128.651 57.4936 128.282 57.7416C127.912 57.9897 127.477 58.122 127.032 58.122C126.437 58.1161 125.869 57.8764 125.448 57.4543C125.028 57.0323 124.789 56.4616 124.783 55.8647ZM125.161 59.2254H128.911V71.766H125.156L125.161 59.2254Z" fill="#1E1B1B"/>
<path id="Vector_9" d="M145.098 65.4954C145.141 66.3242 145.021 67.1534 144.744 67.9353C144.467 68.7173 144.038 69.4366 143.483 70.0518C142.928 70.667 142.257 71.166 141.51 71.5201C140.762 71.8743 139.951 72.0765 139.125 72.1153C138.431 72.1533 137.736 72.0358 137.092 71.7711C136.449 71.5064 135.871 71.1013 135.403 70.5851V76.7807H131.654V59.2251H135.403V60.4031C135.872 59.8873 136.449 59.4825 137.093 59.2181C137.736 58.9536 138.431 58.8362 139.125 58.8742C139.951 58.9128 140.762 59.115 141.51 59.4691C142.258 59.8233 142.929 60.3224 143.484 60.9378C144.039 61.5532 144.468 62.2727 144.745 63.0548C145.022 63.837 145.142 64.6664 145.098 65.4954ZM141.349 65.4954C141.335 64.9085 141.148 64.3389 140.812 63.858C140.477 63.3772 140.007 63.0063 139.463 62.7919C138.918 62.5774 138.322 62.529 137.751 62.6525C137.179 62.7761 136.656 63.0662 136.247 63.4865C135.839 63.9068 135.563 64.4387 135.454 65.0156C135.346 65.5925 135.409 66.1887 135.636 66.7297C135.864 67.2706 136.245 67.7323 136.732 68.0569C137.22 68.3815 137.792 68.5546 138.377 68.5545C138.778 68.5725 139.179 68.505 139.553 68.3566C139.927 68.2081 140.265 67.9821 140.546 67.6932C140.827 67.4044 141.043 67.0593 141.182 66.6805C141.32 66.3017 141.377 65.8979 141.349 65.4954Z" fill="#1E1B1B"/>
<path id="Vector_10" d="M156.666 68.0024C156.666 70.8867 154.168 72.1154 151.469 72.1154C150.379 72.2146 149.284 71.9831 148.326 71.4511C147.368 70.9191 146.592 70.1109 146.096 69.131L149.344 67.2753C149.475 67.7282 149.757 68.1222 150.143 68.3914C150.529 68.6607 150.996 68.789 151.464 68.7548C152.363 68.7548 152.814 68.4787 152.814 67.9783C152.814 66.5976 146.665 67.3259 146.665 62.9874C146.665 60.2525 148.965 58.8743 151.564 58.8743C152.541 58.8433 153.508 59.0759 154.365 59.5477C155.222 60.0196 155.937 60.7136 156.436 61.5573L153.238 63.2876C153.097 62.9591 152.864 62.6793 152.566 62.4831C152.269 62.2869 151.92 62.183 151.564 62.1843C150.914 62.1843 150.514 62.4376 150.514 62.8861C150.519 64.3162 156.666 63.3623 156.666 68.0024Z" fill="#1E1B1B"/>
<path id="Vector_11" d="M170.36 59.2251V71.7657H166.611V70.5864C166.179 71.1068 165.629 71.5168 165.009 71.7828C164.388 72.0488 163.713 72.1632 163.039 72.1166C160.515 72.1166 158.369 70.3115 158.369 66.923V59.2251H162.118V66.372C162.086 66.6707 162.12 66.9726 162.217 67.2568C162.314 67.541 162.471 67.8007 162.678 68.0177C162.885 68.2347 163.136 68.4039 163.415 68.5134C163.693 68.623 163.992 68.6703 164.291 68.6521C165.666 68.6521 166.615 67.8503 166.615 66.0692V59.2289L170.36 59.2251Z" fill="#1E1B1B"/>
<path id="Vector_12" d="M191.855 64.0656V71.7648H188.106V64.3912C188.106 63.1371 187.507 62.3353 186.308 62.3353C185.058 62.3353 184.358 63.2131 184.358 64.6927V71.7648H180.61V64.3912C180.61 63.1371 180.01 62.3353 178.81 62.3353C177.561 62.3353 176.861 63.2131 176.861 64.6927V71.7648H173.113V59.2242H176.861V60.3769C177.25 59.8655 177.76 59.46 178.345 59.1973C178.93 58.9347 179.571 58.8233 180.21 58.8733C180.851 58.8418 181.49 58.9777 182.064 59.2676C182.637 59.5575 183.126 59.9916 183.483 60.5277C183.898 59.9669 184.448 59.521 185.082 59.2317C185.716 58.9424 186.412 58.8191 187.107 58.8733C189.976 58.8746 191.855 60.9305 191.855 64.0656Z" fill="#1E1B1B"/>
<path id="Vector_13" d="M195.026 59.1482C196.562 59.1482 197.807 57.8982 197.807 56.3563C197.807 54.8144 196.562 53.5645 195.026 53.5645C193.489 53.5645 192.244 54.8144 192.244 56.3563C192.244 57.8982 193.489 59.1482 195.026 59.1482Z" fill="#1E1B1B"/>
</g>
</svg>
